<svg xmlns="http://www.w3.org/2000/svg" viewBox="0 0 1440 320"><path fill="#fbbf24" fill-opacity="1" d="M0,96L12,101.3C24,107,48,117,72,106.7C96,96,120,64,144,42.7C168,21,192,11,216,32C240,53,264,107,288,112C312,117,336,75,360,80C384,85,408,139,432,154.7C456,171,480,149,504,138.7C528,128,552,128,576,138.7C600,149,624,171,648,165.3C672,160,696,128,720,112C744,96,768,96,792,96C816,96,840,96,864,117.3C888,139,912,181,936,213.3C960,245,984,267,1008,245.3C1032,224,1056,160,1080,117.3C1104,75,1128,53,1152,85.3C1176,117,1200,203,1224,245.3C1248,288,1272,288,1296,250.7C1320,213,1344,139,1368,122.7C1392,107,1416,149,1428,170.7L1440,192L1440,0L1428,0C1416,0,1392,0,1368,0C1344,0,1320,0,1296,0C1272,0,1248,0,1224,0C1200,0,1176,0,1152,0C1128,0,1104,0,1080,0C1056,0,1032,0,1008,0C984,0,960,0,936,0C912,0,888,0,864,0C840,0,816,0,792,0C768,0,744,0,720,0C696,0,672,0,648,0C624,0,600,0,576,0C552,0,528,0,504,0C480,0,456,0,432,0C408,0,384,0,360,0C336,0,312,0,288,0C264,0,240,0,216,0C192,0,168,0,144,0C120,0,96,0,72,0C48,0,24,0,12,0L0,0Z"></path></svg>